<?xml version="1.0" encoding="UTF-8"?>
<svg width="155px" height="48px" viewBox="0 0 155 48" version="1.1" xmlns="http://www.w3.org/2000/svg" xmlns:xlink="http://www.w3.org/1999/xlink">
    <!-- Generator: Sketch 51.3 (57544) - http://www.bohemiancoding.com/sketch -->
    <title>logoColor</title>
    <desc>Created with Sketch.</desc>
    <defs></defs>
    <g id="Page-1" stroke="none" stroke-width="1" fill="none" fill-rule="evenodd">
        <g id="Master-Logo" transform="translate(0.000000, -32.000000)" fill="#0D47A1" fill-rule="nonzero">
            <g id="logoColor" transform="translate(0.000000, 32.000000)">
                <g id="EmergeTMSLogo">
                    <path d="M3.48522039,10.2328513 C4.70377912,4.05047849 9.31319803,0 16.9427377,0 L27.0091938,0 L25.7906351,6.3954717 L15.8301144,6.3954717 C12.2801606,6.3954717 11.3266189,8.47388679 10.849749,10.8723713 L10.0548869,14.9228589 L22.5057013,14.9228589 L21.3401118,21.2650626 L8.83632817,21.2650626 L7.82962224,26.3814883 C7.35295345,28.8330445 7.51184304,30.8051109 11.0615928,30.8051109 L21.2341734,30.8051109 L20.2804277,35.8149826 C20.1884754,36.6217915 19.4981111,37.2236756 18.6911265,37.2005917 L9.7900709,37.2005917 C2.21369847,37.2005917 -0.965311925,33.1501132 0.253246802,27.0210174 L3.48522039,10.2328513 Z" id="Shape"></path>
                    <path d="M28.2809198,9.43328906 L34.3209543,9.43328906 L34.1620647,12.3112664 C36.1752755,10.2861283 38.6655603,8.74048604 41.6325108,8.74048604 C45.023371,8.74048604 47.1427122,9.85971019 48.0432877,12.2579894 C50.2685524,10.3394053 53.1827467,8.74048604 56.2556267,8.74048604 C61.8187913,8.74048604 64.308872,12.2047125 63.1432764,18.2272574 L59.7524163,35.8149826 C59.6357813,36.6303112 58.9284002,37.2270677 58.1099479,37.2005917 L52.229016,37.2005917 L55.7258026,19.0798913 C56.3086139,16.09536 55.566913,15.0294128 53.5005379,15.0294128 C51.8051064,15.0294128 50.1096778,15.9355291 48.5201726,17.2678611 C48.4142342,18.0672211 48.3083198,18.9200604 48.1494302,19.7726943 L44.8115332,37.2005917 L37.5529279,37.2005917 L41.0497145,19.0798913 C41.5265874,16.5750581 41.3147346,15.0294128 39.4072461,15.0294128 C37.6588513,15.0294128 35.3276603,16.6816121 33.7911183,18.4403623 L30.1884053,37.2005917 L22.9298121,37.2005917 L28.2809198,9.43328906 Z" id="Shape"></path>
                    <path d="M65.0505608,21.4781706 C66.6930292,13.3239366 71.1435585,8.74048302 78.9319878,8.74048302 C84.5481157,8.74048302 88.3097183,12.2047094 88.3097183,16.6816151 C88.3097183,21.9578717 83.7532596,25.7952423 75.5411247,26.3282174 L71.4613347,26.5946023 C70.9846659,29.0463638 71.779318,31.604474 75.4881615,31.604474 C78.455115,31.604474 81.5279949,30.5385117 84.0712428,29.6326128 L84.5481157,35.6549525 C81.1572555,36.9342128 77.9252819,37.8934008 74.4814585,37.8934008 C67.3817519,37.8934008 62.6134434,33.6298143 64.308875,25.2089902 L65.0505608,21.4781706 Z M75.382034,21.3183396 C79.3027302,21.0519547 81.1040882,19.4530325 81.1040882,17.4809691 C81.1040882,15.9355291 80.0446202,15.0294128 78.2430611,15.0294128 C74.1634753,15.0294128 72.9978797,18.4403623 72.4150805,21.5314506 L75.382034,21.3183396 Z" id="Shape"></path>
                    <path d="M92.7608598,9.43328906 L98.7477301,9.43328906 L98.6947669,12.7909615 C100.549088,10.5525132 102.98641,8.79376 105.529444,8.79376 C106.408778,8.78303654 107.284489,8.90889534 108.125656,9.16689208 L106.483196,15.34928 C105.823582,15.1936756 105.147152,15.1220105 104.469784,15.1359668 C102.24452,15.1359668 99.754436,17.1613072 98.2708602,18.5469162 L94.6681472,37.2005917 L87.409551,37.2005917 L92.7608598,9.43328906 Z" id="Shape"></path>
                    <path d="M106.324511,41.5176604 L115.172618,41.5176604 C116.973976,41.5176604 118.245498,40.131846 118.616441,38.3198189 L119.252204,34.9088694 C117.499033,36.3851447 115.286663,37.1961226 113.000317,37.2005947 C107.013245,37.2005947 104.152209,31.9776151 105.317814,25.7419623 L106.218593,21.2117857 C107.755135,13.4837675 112.099525,8.74048302 119.62315,8.74048302 C123.43792,8.74048302 127.199523,10.0195381 130.855406,11.9916015 L125.769114,38.3198128 C124.656482,44.1823215 120.470766,47.9131381 113.901099,47.9131381 L105.741711,47.9131381 L106.324511,41.5176604 Z M112.788455,25.2622642 C112.046565,29.0463577 112.841418,30.9116649 114.907592,30.9116649 C116.815083,30.9116649 118.669399,29.6326098 120.576683,27.4474385 L122.854911,15.7222189 C121.775159,15.2883077 120.626527,15.0536241 119.464051,15.0294128 C116.020227,15.0294128 114.324796,17.3211381 113.424217,21.8513147 L112.788455,25.2622642 Z" id="Shape"></path>
                    <path d="M131.59708,21.4781706 C133.239548,13.3239366 137.690078,8.74048302 145.478507,8.74048302 C151.094635,8.74048302 154.856237,12.2047094 154.856237,16.6816151 C154.856237,21.9578717 150.299779,25.7952423 142.087644,26.3282174 L138.007854,26.5946023 C137.531185,29.0463638 138.325837,31.604474 142.034681,31.604474 C145.001634,31.604474 148.074514,30.5385117 150.617762,29.6326128 L151.094635,35.6549525 C147.703775,36.9342128 144.471801,37.8934008 141.027978,37.8934008 C133.928271,37.8934008 129.159962,33.6298143 130.855394,25.2089902 L131.59708,21.4781706 Z M141.928553,21.3183396 C145.849249,21.0519547 147.650607,19.4530325 147.650607,17.4809691 C147.650607,15.9355291 146.591139,15.0294128 144.78958,15.0294128 C140.709994,15.0294128 139.544399,18.4403623 138.9616,21.5314506 L141.928553,21.3183396 Z" id="Shape"></path>
                </g>
            </g>
        </g>
    </g>
</svg>